Coordinates
version=1
nRows=24
nColumns=24
inDegrees=yes

Units are S.I. units (second, meters, Newtons, ...)
Angles are in degrees.

endheader
time	pelvis_tilt	pelvis_list	pelvis_rotation	pelvis_tx	pelvis_ty	pelvis_tz	hip_flexion_r	hip_adduction_r	hip_rotation_r	knee_angle_r	ankle_angle_r	subtalar_angle_r	mtp_angle_r	hip_flexion_l	hip_adduction_l	hip_rotation_l	knee_angle_l	ankle_angle_l	subtalar_angle_l	mtp_angle_l	lumbar_extension	lumbar_bending	lumbar_rotation
      2.65500000	     12.74478150	     -3.85933845	      7.27400845	      0.95606369	      0.91214470	      0.25801208	     16.16493663	      5.85618377	     -4.97292164	    -30.95489363	     13.80379085	     -1.37031748	     28.03681948	    -14.61636514	     -8.47190516	     -1.66288265	    -54.94173478	     11.28932752	      6.89231225	     48.35629442	    -27.19958967	      9.84164339	     -2.33910402
      2.66000000	     12.23819626	     -4.54301326	      7.77748976	      0.96209770	      0.91149624	      0.25766512	     16.39578126	      6.59260117	     -5.18581719	    -30.86534409	     14.06341851	     -1.81735916	     27.95315200	    -12.56385787	     -9.13439555	     -0.68382276	    -57.47559600	     11.83868171	      6.30320536	     47.65100152	    -26.59779619	     10.76166396	     -2.36394929
      2.66500000	     11.75254158	     -5.06015584	      8.07517122	      0.96809583	      0.91107787	      0.25753003	     16.61011310	      7.19312849	     -5.17222138	    -30.83429608	     14.25803776	     -2.44787936	     27.84920694	    -10.64715981	     -9.49390208	      0.17600373	    -59.76139691	     12.51423693	      5.83672130	     47.34060385	    -26.05641698	     11.42766559	     -2.25212267
      2.67000000	     11.44811891	     -5.54897292	      8.39568469	      0.97419711	      0.91108265	      0.25727090	     16.58126101	      7.74579293	     -5.26223613	    -30.74986567	     14.55374179	     -2.97268068	     27.66398327	     -8.98546174	     -9.82590838	      0.97908779	    -61.80821036	     12.97130349	      5.17955567	     47.11356476	    -25.70092744	     12.10323536	     -2.23127414
      2.67500000	     11.00782136	     -5.98520080	      8.60056869	      0.98033525	      0.91099724	      0.25715313	     16.71694841	      8.21924332	     -5.29262107	    -30.72229094	     14.89832428	     -3.15727828	     27.04340079	     -7.19691870	    -10.06026334	      1.70022700	    -63.75441445	     13.36581949	      4.78221832	     46.71277619	    -25.21514573	     12.66225199	     -2.09489472
      2.68000000	     10.75283707	     -6.32574758	      8.83484319	      0.98648137	      0.91138028	      0.25712239	     16.55588402	      8.64216895	     -5.30054380	    -30.54114878	     15.29283173	     -3.35573482	     26.08900510	     -5.63152256	    -10.24608670	      2.30348647	    -65.50294108	     13.64710000	      3.96475784	     45.48828826	    -24.92922159	     13.13633224	     -2.10627168
      2.68500000	     10.69117368	     -6.65649819	      9.12540358	      0.99251298	      0.91210743	      0.25713352	     16.16047482	      9.07115336	     -5.42208282	    -30.29662346	     15.51328332	     -3.45980031	     25.81216613	     -4.23706072	    -10.51080028	      2.85741158	    -67.17976918	     13.82651170	      3.42920541	     45.57390928	    -24.85409017	     13.61457722	     -2.10427878
      2.69000000	     10.41265147	     -7.00387555	      9.39666085	      0.99856904	      0.91259994	      0.25700041	     15.99300078	      9.45451772	     -5.55836759	    -30.04794311	     15.69588457	     -3.46731725	     25.43611352	     -2.57469076	    -10.73472168	      3.41300671	    -68.79942201	     14.03615960	      2.93357530	     45.59762301	    -24.51700540	     14.09597056	     -2.12471617
      2.69500000	     10.12055006	     -7.29513278	      9.55039297	      1.00466219	      0.91313156	      0.25707028	     15.85677778	      9.79304449	     -5.65934098	    -29.86873169	     15.95504999	     -3.46161914	     25.02186634	     -0.96541283	    -10.89969487	      3.84216780	    -70.25193724	     14.26185345	      2.71691302	     45.57637681	    -24.20897896	     14.45612178	     -2.04517386
      2.70000000	      9.79269033	     -7.56523189	      9.71600074	      1.01064816	      0.91362621	      0.25712155	     15.73870936	     10.08760801	     -5.71344957	    -29.63967564	     16.24711238	     -3.38873981	     24.49072244	      0.69521637	    -11.00863492	      4.28763266	    -71.61169848	     14.63232051	      2.35219786	     45.16091833	    -23.85159897	     14.79878693	     -2.09656166
      2.70500000	      9.62085793	     -7.80757265	      9.92239736	      1.01656848	      0.91440020	      0.25706979	     15.40748841	     10.37647889	     -5.81542746	    -29.31513631	     16.51344376	     -3.46455707	     24.17467421	      2.17837498	    -11.08552464	      4.75012598	    -72.85473633	     14.90536662	      2.20213198	     45.22800909	    -23.66552352	     15.14149233	     -2.11556376
      2.71000000	      9.30903383	     -8.07136751	     10.05363722	      1.02265741	      0.91497127	      0.25716250	     15.21835942	     10.67566394	     -5.89783608	    -29.00017825	     16.70264914	     -3.44552287	     23.45373872	      3.78565863	    -11.14920561	      5.15425109	    -73.98976977	     15.12363608	      1.90097882	     45.04615710	    -23.31439436	     15.45112430	     -2.13241312
      2.71500000	      9.04957608	     -8.28026233	     10.06480646	      1.02879178	      0.91567166	      0.25733007	     14.95518830	     10.94243110	     -5.89430379	    -28.71104307	     17.12622144	     -3.13232451	     21.42543629	      5.23610067	    -11.15516331	      5.38228589	    -74.95560068	     15.38244228	      1.67081579	     44.74595023	    -23.05919963	     15.66523218	     -1.99213189
      2.72000000	      8.91067501	     -8.58520837	     10.17472044	      1.03494289	      0.91656128	      0.25747065	     14.44114518	     11.35174093	     -5.90403432	    -28.11216777	     17.25833931	     -3.09637493	     21.03212565	      6.58011622	    -11.31693700	      5.66174086	    -75.79019311	     15.61733489	      1.53109135	     44.54831336	    -22.89377683	     16.00765065	     -1.91073578
      2.72500000	      8.90081965	     -8.93469721	     10.19224222	      1.04127251	      0.91773600	      0.25784984	     13.60581998	     11.89790043	     -5.68635743	    -27.16351676	     17.26187314	     -3.21849678	     20.74046780	      7.71705366	    -11.59907449	      5.79089310	    -76.47448732	     15.98619355	      1.51424342	     44.66674433	    -22.88333929	     16.35973038	     -1.71113269
      2.73000000	      8.87919793	     -9.35010763	     10.21496097	      1.04773615	      0.91890503	      0.25831761	     12.63896828	     12.54550939	     -5.33406331	    -25.90941131	     17.31908007	     -3.44472899	     20.72082689	      8.87179936	    -11.97272190	      5.93488289	    -77.09395480	     16.32343849	      1.51672942	     44.68032021	    -22.83975807	     16.76417589	     -1.47572848
      2.73500000	      8.92127081	     -9.75361946	     10.28618049	      1.05411824	      0.92020114	      0.25859624	     11.59201166	     13.17364992	     -4.96811709	    -24.61737591	     17.31371081	     -3.76885202	     20.89896582	      9.94894971	    -12.33168242	      6.10815028	    -77.60718179	     16.65001587	      1.70631769	     44.66627900	    -22.85372658	     17.18808828	     -1.26971520
      2.74000000	      8.98386279	    -10.04912890	     10.23603218	      1.06050765	      0.92150463	      0.25902909	     10.62061594	     13.69124053	     -4.55242029	    -23.59946504	     17.26727875	     -4.09194088	     21.12070604	     10.88695803	    -12.59390260	      6.14171578	    -77.92301449	     17.14101724	      1.94291172	     44.60275085	    -22.93211532	     17.44855368	     -0.93914816
      2.74500000	      8.97751012	    -10.24162376	     10.12345590	      1.06691447	      0.92265973	      0.25928181	      9.86432321	     14.03865821	     -4.30758248	    -22.94264577	     17.21299638	     -4.24815600	     21.22357273	     11.84020016	    -12.69937681	      6.09930184	    -78.15784584	     17.52128351	      2.13269782	     44.50314435	    -22.94404854	     17.59822079	     -0.60469695
      2.75000000	      8.98613339	    -10.24570235	      9.96643282	      1.07314820	      0.92378878	      0.25939679	      9.25599921	     14.13465843	     -4.29789178	    -22.69497954	     17.35423779	     -4.09322860	     21.22075565	     12.68881236	    -12.55748835	      5.98712696	    -78.26603249	     17.88286733	      2.08723301	     44.47403753	    -23.01749543	     17.54994823	     -0.38103145
      2.75500000	      8.95930645	    -10.24831740	      9.73001562	      1.07959473	      0.92479703	      0.25954556	      8.71338349	     14.19873987	     -4.33383162	    -22.56334376	     17.59055442	     -3.65941730	     21.17965348	     13.52053318	    -12.44492586	      5.77232105	    -78.31303029	     18.28803789	      2.26737269	     44.40348801	    -23.04602821	     17.46481560	     -0.01570362
      2.76000000	      9.06097362	    -10.03451729	      9.46277817	      1.08588783	      0.92615526	      0.25946208	      8.05538433	     14.02322639	     -4.37134365	    -22.58369145	     18.01159665	     -2.99311166	     20.77806606	     14.08301625	    -12.08024070	      5.45826538	    -78.16033733	     18.66162362	      2.25070245	     43.77907479	    -23.25985719	     17.17843103	      0.28953357
      2.76500000	      9.24641629	    -10.02863411	      9.33207874	      1.09213743	      0.92750668	      0.25925450	      7.25403562	     14.08961721	     -4.47732173	    -22.34090014	     18.37709556	     -2.44807570	     19.74538824	     14.63320828	    -11.93929074	      5.32372225	    -77.97168860	     19.13028576	      2.45831074	     42.62902792	    -23.50484605	     17.15660049	      0.65299817
      2.77000000	      9.25487280	    -10.12491781	      9.18109093	      1.09851693	      0.92860112	      0.25911664	      6.57458832	     14.24840171	     -4.46603936	    -21.92223604	     18.51030318	     -2.11833835	     19.77828384	     15.38399664	    -11.88599100	      5.19168068	    -77.72730766	     19.48858205	      2.45405645	     42.64171350	    -23.54029108	     17.21770650	      0.99948904
